<svg width="24" height="21" viewBox="0 0 24 21" fill="none" xmlns="http://www.w3.org/2000/svg">
<path d="M20.84 2.60987C20.3292 2.09888 19.7228 1.69352 19.0554 1.41696C18.3879 1.14039 17.6725 0.998047 16.95 0.998047C16.2275 0.998047 15.5121 1.14039 14.8446 1.41696C14.1772 1.69352 13.5708 2.09888 13.06 2.60987L12 3.66987L10.94 2.60987C9.9083 1.57818 8.50903 0.998582 7.05 0.998582C5.59096 0.998582 4.19169 1.57818 3.16 2.60987C2.1283 3.64156 1.54871 5.04084 1.54871 6.49987C1.54871 7.95891 2.1283 9.35818 3.16 10.3899L4.22 11.4499L12 19.2299L19.78 11.4499L20.84 10.3899C21.351 9.87912 21.7563 9.27269 22.0329 8.60523C22.3095 7.93777 22.4518 7.22236 22.4518 6.49987C22.4518 5.77738 22.3095 5.06198 22.0329 4.39452C21.7563 3.72706 21.351 3.12063 20.84 2.60987V2.60987Z" stroke="white" stroke-width="2" stroke-linecap="round" stroke-linejoin="round"/>
</svg>
