<svg width="20" height="20" viewBox="0 0 20 20" fill="none" xmlns="http://www.w3.org/2000/svg">
<path fill-rule="evenodd" clip-rule="evenodd" d="M5.12318 7.95107C4.52295 4.94993 6.81842 2.1499 9.87899 2.1499H10.4998C13.1864 2.1499 15.3498 4.35874 15.3498 7.02923C15.3498 8.52259 14.6614 9.95105 13.4774 10.8719L10.9077 12.8706C10.8711 12.899 10.8498 12.9427 10.8498 12.989V13.4999C10.8498 13.9693 10.4692 14.3499 9.99978 14.3499C9.53033 14.3499 9.14978 13.9693 9.14978 13.4999V12.989C9.14978 12.4181 9.41335 11.8792 9.86399 11.5287L12.4337 9.53003C13.1984 8.93525 13.6498 8.00458 13.6498 7.02923C13.6498 5.28143 12.2314 3.8499 10.4998 3.8499H9.87899C7.8912 3.8499 6.40032 5.66847 6.79016 7.61767L6.83327 7.8332C6.92533 8.29353 6.6268 8.74133 6.16647 8.8334C5.70615 8.92546 5.25835 8.62693 5.16628 8.1666L5.12318 7.95107Z" fill="#9B9B9B"/>
<circle cx="10.0008" cy="16.7" r="0.6" stroke="#9B9B9B" stroke-width="1.2"/>
</svg>
