<svg width="20" height="20" viewBox="0 0 20 20" fill="none" xmlns="http://www.w3.org/2000/svg">
<path fill-rule="evenodd" clip-rule="evenodd" d="M9.99977 1.97705C10.414 1.97705 10.7498 2.31284 10.7498 2.72705V3.38865C10.7498 3.80287 10.414 4.13865 9.99977 4.13865C9.58556 4.13865 9.24977 3.80287 9.24977 3.38865V2.72705C9.24977 2.31284 9.58556 1.97705 9.99977 1.97705ZM9.99977 12.4668C11.3622 12.4668 12.4667 11.3623 12.4667 9.99982C12.4667 8.63735 11.3622 7.53286 9.99977 7.53286C8.63731 7.53286 7.53281 8.63735 7.53281 9.99982C7.53281 11.3623 8.63731 12.4668 9.99977 12.4668ZM9.99977 13.9668C12.1907 13.9668 13.9667 12.1907 13.9667 9.99982C13.9667 7.80893 12.1907 6.03286 9.99977 6.03286C7.80888 6.03286 6.03281 7.80893 6.03281 9.99982C6.03281 12.1907 7.80888 13.9668 9.99977 13.9668ZM10.7498 16.6114C10.7498 16.1972 10.414 15.8614 9.99977 15.8614C9.58556 15.8614 9.24977 16.1972 9.24977 16.6114V17.273C9.24977 17.6872 9.58556 18.023 9.99977 18.023C10.414 18.023 10.7498 17.6872 10.7498 17.273V16.6114ZM15.6727 4.32685C15.9656 4.61975 15.9656 5.09462 15.6727 5.38751L15.2048 5.85533C14.9119 6.14823 14.4371 6.14823 14.1442 5.85533C13.8513 5.56244 13.8513 5.08757 14.1442 4.79467L14.612 4.32685C14.9049 4.03396 15.3798 4.03396 15.6727 4.32685ZM5.85492 15.2053C6.14782 14.9124 6.14782 14.4375 5.85492 14.1446C5.56203 13.8517 5.08716 13.8517 4.79426 14.1446L4.32644 14.6124C4.03355 14.9053 4.03355 15.3802 4.32644 15.6731C4.61933 15.966 5.09421 15.966 5.3871 15.6731L5.85492 15.2053ZM18.0225 9.99982C18.0225 10.414 17.6868 10.7498 17.2725 10.7498H16.6109C16.1967 10.7498 15.8609 10.414 15.8609 9.99982C15.8609 9.58561 16.1967 9.24982 16.6109 9.24982H17.2725C17.6868 9.24982 18.0225 9.58561 18.0225 9.99982ZM3.38816 10.7498C3.80238 10.7498 4.13816 10.414 4.13816 9.99982C4.13816 9.58561 3.80238 9.24982 3.38816 9.24982H2.72656C2.31235 9.24982 1.97656 9.58561 1.97656 9.99982C1.97656 10.414 2.31235 10.7498 2.72656 10.7498H3.38816ZM15.6727 15.6728C15.3798 15.9657 14.9049 15.9657 14.612 15.6728L14.1442 15.205C13.8513 14.9121 13.8513 14.4372 14.1442 14.1443C14.4371 13.8514 14.9119 13.8514 15.2048 14.1443L15.6727 14.6121C15.9656 14.905 15.9656 15.3799 15.6727 15.6728ZM4.79426 5.85505C5.08716 6.14795 5.56203 6.14795 5.85492 5.85505C6.14782 5.56216 6.14782 5.08729 5.85492 4.79439L5.3871 4.32657C5.09421 4.03368 4.61933 4.03368 4.32644 4.32657C4.03355 4.61946 4.03355 5.09434 4.32644 5.38723L4.79426 5.85505Z" fill="#9B9B9B"/>
</svg>
