<svg width="20" height="21" viewBox="0 0 20 21" fill="none" xmlns="http://www.w3.org/2000/svg">
<path d="M13 11.2C13.3866 11.2 13.7 10.8866 13.7 10.5C13.7 10.1134 13.3866 9.8 13 9.8L13 11.2ZM2.50503 10.005C2.23166 10.2784 2.23166 10.7216 2.50503 10.995L6.9598 15.4497C7.23316 15.7231 7.67638 15.7231 7.94975 15.4497C8.22311 15.1764 8.22311 14.7332 7.94975 14.4598L3.98995 10.5L7.94975 6.5402C8.22312 6.26683 8.22312 5.82362 7.94975 5.55025C7.67638 5.27688 7.23317 5.27688 6.9598 5.55025L2.50503 10.005ZM13 9.8L3 9.8L3 11.2L13 11.2L13 9.8Z" fill="#9B9B9B"/>
<path d="M10 7V6C10 4.61929 11.1193 3.5 12.5 3.5H14.5C15.8807 3.5 17 4.61929 17 6V15C17 16.3807 15.8807 17.5 14.5 17.5H12.5C11.1193 17.5 10 16.3807 10 15V14.5" stroke="#9B9B9B" stroke-width="1.5" stroke-linecap="round"/>
</svg>
