<svg width="21" height="23" viewBox="0 0 21 23" fill="none" xmlns="http://www.w3.org/2000/svg">
<g clip-path="url(#clip0_127_594)">
<path d="M19.5151 7.8407C19.3743 7.9442 16.8893 9.2713 16.8893 12.2222C16.8893 15.6354 20.0514 16.8429 20.146 16.8728C20.1315 16.9464 19.6437 18.5265 18.4789 20.1365C17.4402 21.5533 16.3554 22.9678 14.7052 22.9678C13.055 22.9678 12.6304 22.0593 10.7254 22.0593C8.86888 22.0593 8.2088 22.9977 6.69935 22.9977C5.18991 22.9977 4.13669 21.6867 2.92574 20.0767C1.52307 18.1861 0.389771 15.249 0.389771 12.4614C0.389771 7.9902 3.4572 5.6189 6.47609 5.6189C8.08018 5.6189 9.41733 6.6171 10.4244 6.6171C11.383 6.6171 12.8779 5.5591 14.7028 5.5591C15.3944 5.5591 17.8794 5.6189 19.5151 7.8407ZM13.8365 3.6662C14.5912 2.8175 15.1251 1.6399 15.1251 0.4623C15.1251 0.299 15.1105 0.1334 15.079 -1.73626e-10C13.851 0.0437 12.3901 0.7751 11.5092 1.7434C10.8176 2.4886 10.172 3.6662 10.172 4.8599C10.172 5.0393 10.2036 5.2187 10.2182 5.2762C10.2958 5.29 10.422 5.3061 10.5482 5.3061C11.6499 5.3061 13.0356 4.6069 13.8365 3.6662Z" fill="black"/>
</g>
<defs>
<clipPath id="clip0_127_594">
<rect width="19.7538" height="23" fill="white" transform="translate(0.389771)"/>
</clipPath>
</defs>
</svg>
