<svg width="32" height="30" viewBox="0 0 32 30" fill="none" xmlns="http://www.w3.org/2000/svg">
<path d="M0.565918 5.33344C0.565918 2.57202 2.80449 0.333435 5.56592 0.333435H26.8195C29.5809 0.333435 31.8195 2.57201 31.8195 5.33344V24.6668C31.8195 27.4282 29.5809 29.6668 26.8195 29.6668H5.56592C2.80449 29.6668 0.565918 27.4282 0.565918 24.6668V5.33344Z" fill="white"/>
<path d="M28.9617 12.6064H27.9128V12.5557H16.1927V17.4446H23.5523C22.4786 20.2905 19.5935 22.3334 16.1927 22.3334C11.8778 22.3334 8.37933 19.0499 8.37933 15.0001C8.37933 10.9503 11.8778 7.66678 16.1927 7.66678C18.1845 7.66678 19.9965 8.372 21.3763 9.52395L25.0596 6.06689C22.7338 4.0325 19.6228 2.77789 16.1927 2.77789C9.00115 2.77789 3.17041 8.25039 3.17041 15.0001C3.17041 21.7498 9.00115 27.2223 16.1927 27.2223C23.3843 27.2223 29.215 21.7498 29.215 15.0001C29.215 14.1806 29.1252 13.3807 28.9617 12.6064Z" fill="#FFC107"/>
<path d="M4.67188 9.31128L8.95036 12.2562C10.108 9.56612 12.9117 7.66678 16.1927 7.66678C18.1845 7.66678 19.9965 8.372 21.3762 9.52395L25.0596 6.06689C22.7338 4.0325 19.6228 2.77789 16.1927 2.77789C11.1908 2.77789 6.85311 5.42828 4.67188 9.31128Z" fill="#FF3D00"/>
<path d="M16.1927 27.2223C19.5564 27.2223 22.6127 26.0141 24.9235 24.0494L20.8931 20.8484C19.5857 21.7779 17.9605 22.3334 16.1927 22.3334C12.8056 22.3334 9.92964 20.3064 8.84618 17.4775L4.59961 20.5484C6.7548 24.5065 11.1316 27.2223 16.1927 27.2223Z" fill="#4CAF50"/>
<path d="M28.9618 12.6064H27.9128V12.5557H16.1927V17.4446H23.5523C23.0366 18.8116 22.0997 19.9904 20.8912 20.8491L20.8932 20.8478L24.9236 24.0488C24.6384 24.2921 29.2151 21.1112 29.2151 15.0001C29.2151 14.1806 29.1252 13.3807 28.9618 12.6064Z" fill="#1976D2"/>
</svg>
