<svg width="28" height="28" viewBox="0 0 28 28" fill="none" xmlns="http://www.w3.org/2000/svg">
<g clip-path="url(#clip0_191_3503)">
<path d="M27.125 8.74996L0.875046 8.74996C0.392027 8.74996 6.85448e-05 8.35793 6.85026e-05 7.87498C6.84604e-05 7.39196 0.392099 7 0.875045 7L27.125 7C27.608 7 28 7.39203 28 7.87498C28 8.35792 27.608 8.74995 27.125 8.74996Z" fill="white"/>
<path d="M0.875045 14.0474L27.125 14.0474C27.608 14.0474 28 14.4394 28 14.9223C28 15.4053 27.608 15.7973 27.125 15.7973L0.875046 15.7973C0.392027 15.7973 6.85448e-05 15.4053 6.85026e-05 14.9223C6.84604e-05 14.4394 0.392027 14.0474 0.875045 14.0474Z" fill="white"/>
<path d="M0.875039 21.0947L18.375 21.0947C18.858 21.0947 19.25 21.4868 19.25 21.9697C19.25 22.4527 18.858 22.8447 18.375 22.8447L0.875039 22.8447C0.392021 22.8447 6.23013e-05 22.4527 6.2259e-05 21.9697C-1.02624e-05 21.4867 0.39202 21.0947 0.875039 21.0947Z" fill="white"/>
</g>
<defs>
<clipPath id="clip0_191_3503">
<rect width="28" height="28" fill="white" transform="matrix(-1 8.74228e-08 8.74228e-08 1 28 0)"/>
</clipPath>
</defs>
</svg>
